<svg xmlns="http://www.w3.org/2000/svg" width="184" height="24" viewBox="0 0 184 24" fill="none">
<g clip-path="url(#clip0_22598_37310)">
<path d="M9.06803 14.5112C9.14133 14.7188 9.21606 14.9279 9.29798 15.1326C9.34828 15.2624 9.39858 15.3878 9.45175 15.5118C9.48481 15.5882 9.5193 15.6631 9.55523 15.7424C9.59978 15.8405 9.64433 15.9414 9.69319 16.0409C9.88146 16.4373 10.0884 16.8223 10.3155 17.1928C10.4218 17.373 10.5339 17.5503 10.6489 17.7248C10.7136 17.8228 10.7782 17.9208 10.8472 18.0174C10.9004 18.0938 10.9564 18.1717 11.0125 18.2481C11.0456 18.2985 11.0858 18.349 11.1217 18.3966C11.1691 18.4615 11.2194 18.5263 11.2697 18.5912C11.3315 18.6734 11.3962 18.7541 11.4609 18.8334C11.4638 18.8334 11.4666 18.8305 11.4695 18.8276C12.1335 18.3158 12.7443 17.7233 13.2889 17.0645C13.3033 17.0472 13.3148 17.0342 13.3249 17.0169C13.3191 17.014 13.1653 16.8122 13.0949 16.7098C13.0619 16.668 13.0303 16.6262 13.0029 16.5829C12.9469 16.5065 12.8937 16.4316 12.8463 16.3523C12.8017 16.2874 12.7601 16.2254 12.7198 16.1605C12.6782 16.1014 12.6408 16.0394 12.6049 15.9774C12.5373 15.8708 12.4726 15.7641 12.4108 15.6545C12.3993 15.6401 12.3907 15.6242 12.385 15.6098C12.3146 15.4887 12.247 15.3647 12.1866 15.2393C12.1665 15.2133 12.1536 15.186 12.1421 15.1571C12.0918 15.062 12.0472 14.9683 12.0027 14.8702C11.8374 14.5271 11.6923 14.1753 11.5629 13.8135C11.2741 13.0061 11.0757 12.1599 10.9751 11.2833C10.9248 10.8479 10.899 10.4068 10.899 9.95986C10.899 9.79406 10.9018 9.62827 10.9105 9.46248C10.9162 9.31398 10.9248 9.16405 10.9378 9.01555C10.9406 8.9824 10.9435 8.95068 10.9464 8.91752C10.955 8.82237 10.9636 8.72866 10.9766 8.63351C10.9823 8.56575 10.9909 8.49799 10.9996 8.43167C11.0254 8.24281 11.0556 8.05539 11.0915 7.86942C11.1088 7.7685 11.1275 7.67047 11.1505 7.57099C11.1533 7.54071 11.162 7.50611 11.1706 7.47584C11.1936 7.36627 11.218 7.25959 11.2468 7.1529C11.2582 7.10533 11.2697 7.06063 11.2798 7.01738C11.3071 6.9107 11.3359 6.8069 11.3689 6.70598C11.4551 6.40467 11.5543 6.11345 11.6664 5.82367C11.7052 5.72275 11.7483 5.62184 11.79 5.52236C11.7929 5.51371 11.7957 5.50218 11.8015 5.49497C11.8403 5.39693 11.8848 5.30034 11.928 5.20519C12.0487 4.93848 12.1823 4.67321 12.326 4.41803C12.3519 4.37046 12.3792 4.32288 12.408 4.27531C12.4223 4.24503 12.4381 4.2162 12.4554 4.18881C12.4611 4.18016 12.4669 4.17151 12.4726 4.16285C12.4784 4.1542 12.4841 4.14556 12.4899 4.1369C12.9685 3.38867 14.065 3.39444 14.5349 4.1542C14.5407 4.15709 14.5407 4.15997 14.5436 4.16574C14.5464 4.16862 14.5493 4.17439 14.5522 4.17727C14.5522 4.18016 14.5551 4.18592 14.5579 4.18881C14.5608 4.19457 14.5637 4.20034 14.5666 4.20611C14.5867 4.23638 14.6025 4.2681 14.6197 4.29837C14.6399 4.32577 14.6557 4.36037 14.6729 4.39064C14.7261 4.49156 14.7793 4.58959 14.8324 4.68907C14.8914 4.80152 14.9474 4.91397 15.0006 5.02931C15.0265 5.07976 15.0509 5.13022 15.0739 5.18357C15.0796 5.19222 15.0825 5.20375 15.0882 5.21096C15.1328 5.30899 15.1745 5.40703 15.2176 5.50939C15.2506 5.58579 15.2823 5.66076 15.3096 5.74005C15.3397 5.8107 15.3685 5.8799 15.3929 5.95342C15.4317 6.05146 15.4691 6.15238 15.5021 6.25762C15.5352 6.35854 15.5697 6.45945 15.5999 6.56181C15.6329 6.67426 15.6674 6.78672 15.6976 6.89917C15.7249 7.00008 15.7536 7.10389 15.7795 7.20624C15.7824 7.21778 15.7853 7.22931 15.7881 7.2394C15.8054 7.31005 15.8212 7.37925 15.8356 7.44989C15.8528 7.52053 15.8657 7.58829 15.8801 7.65749C15.906 7.78436 15.9304 7.90834 15.9505 8.03377C15.9735 8.1664 15.9922 8.2976 16.0123 8.43312C16.0267 8.53692 16.0382 8.6436 16.0483 8.7474C16.0598 8.8512 16.0713 8.95789 16.0756 9.06169C16.0813 9.1035 16.0842 9.14819 16.0871 9.19144C16.0928 9.28371 16.0986 9.3803 16.1014 9.47545C16.1043 9.53456 16.1072 9.59655 16.1072 9.65566C16.1101 9.70612 16.1101 9.75658 16.1101 9.80704C16.1129 9.86038 16.1129 9.91084 16.1129 9.9613C16.1129 10.0766 16.1101 10.1891 16.1072 10.3044C16.1043 10.3722 16.1043 10.4428 16.0986 10.512C16.0957 10.5855 16.0928 10.6547 16.0871 10.7254C16.0784 10.8378 16.0698 10.9474 16.0612 11.0541C16.0698 11.057 16.0756 11.057 16.0842 11.0599C16.9364 11.2199 17.7714 11.465 18.5762 11.7821C18.5935 11.6582 18.6064 11.5342 18.6208 11.4087V11.403C18.6294 11.3496 18.6351 11.2934 18.638 11.2372C18.6495 11.1276 18.6581 11.0181 18.6639 10.9056C18.6869 10.5942 18.6969 10.2785 18.6969 9.9613C18.6969 6.4955 17.4466 3.32091 15.3728 0.870055C15.3671 0.861405 15.3613 0.855638 15.3556 0.849871C15.3512 0.845546 15.3512 0.844104 15.3527 0.844104C15.3556 0.844104 15.3268 0.816713 15.3168 0.802296L15.2909 0.776345C14.3352 -0.258782 12.6796 -0.258782 11.7239 0.776345L11.698 0.802296C11.698 0.802296 11.6721 0.829688 11.6621 0.844104C11.6549 0.852755 11.6535 0.855638 11.6592 0.849871C11.6678 0.841221 11.6477 0.861405 11.642 0.870055L11.4235 1.131C11.3703 1.20164 11.3172 1.2694 11.264 1.33572C11.2022 1.41789 11.1404 1.49574 11.0815 1.57792C10.6561 2.14883 10.2738 2.75577 9.94038 3.38867C9.89871 3.47085 9.85703 3.55447 9.81391 3.63664C9.76649 3.72603 9.72481 3.81974 9.67882 3.90912C9.58972 4.0951 9.5078 4.27963 9.42876 4.46561C9.38996 4.56076 9.34972 4.65447 9.31091 4.74962C9.27498 4.84477 9.23762 4.94136 9.20169 5.03651C9.16576 5.13166 9.13127 5.22826 9.09822 5.32629C9.06516 5.42144 9.03067 5.52092 9.00049 5.61607C8.97031 5.71122 8.93869 5.80781 8.91139 5.90296C8.90851 5.90873 8.90851 5.91161 8.90564 5.91738C8.87833 6.01542 8.84959 6.11201 8.82372 6.21004C8.79641 6.30808 8.76767 6.40899 8.7418 6.51135C8.71881 6.59785 8.70013 6.6858 8.67713 6.77518C8.65126 6.88763 8.62683 7.00297 8.60384 7.1183C8.58084 7.21922 8.56216 7.32014 8.54491 7.42538C8.52479 7.52918 8.50898 7.6301 8.49174 7.7339C8.45581 7.95592 8.42419 8.18082 8.39976 8.40572C8.37964 8.60035 8.36096 8.79642 8.34946 8.99537C8.32647 9.31542 8.31641 9.63692 8.31641 9.96274C8.31641 10.6432 8.36383 11.315 8.45868 11.9696C8.58228 12.8461 8.78923 13.6953 9.0666 14.5141L9.06803 14.5112Z" fill="white"/>
<path d="M8.20674 12.0639C8.20674 12.0639 2.11611 14.101 0.0523623 20.8423C0.0523623 20.8423 -0.447765 22.8001 1.64329 23.6579C1.64329 23.6579 7.78997 25.4067 13.3489 21.0038C13.3489 21.0038 16.318 18.9148 17.8069 14.8666C17.8069 14.8666 16.1901 14.2149 15.3407 14.1183C15.3407 14.1183 14.5043 16.1324 13.3489 17.4097C13.3489 17.4097 10.8425 20.6275 6.50516 21.2777C2.16784 21.9294 3.35637 19.6083 3.35637 19.6083C3.35637 19.6083 5.1643 16.0761 8.8204 14.6128C8.8204 14.6128 8.25991 12.9174 8.20387 12.0625L8.20674 12.0639Z" fill="white"/>
<path d="M13.6721 21.0321C13.6721 21.0321 18.5139 25.262 25.3518 23.6213C25.3518 23.6213 27.2877 23.0591 26.9615 20.8173C26.9615 20.8173 25.3418 14.618 18.7381 12.049C18.7381 12.049 15.437 10.5438 11.2031 11.3123C11.2031 11.3123 11.4647 13.0408 11.8139 13.8237C11.8139 13.8237 13.9682 13.5238 15.6511 13.8741C15.6511 13.8741 19.6866 14.4061 22.4488 17.8229C25.211 21.2397 22.6141 21.3911 22.6141 21.3911C22.6141 21.3911 18.6634 21.6217 15.5491 19.2055C15.5491 19.2055 14.3778 20.5505 13.6721 21.0335V21.0321Z" fill="white"/>
<path d="M33.7085 2.96875H38.2667L44.3702 17.8967H44.6105L50.714 2.96875H55.2722V23.5694H51.6981V9.41565H51.5068L45.8248 23.5089H43.1544L37.4724 9.38538H37.2811V23.568H33.707V2.96875H33.7085Z" fill="white"/>
<path d="M63.6064 23.881C62.6294 23.881 61.7503 23.7051 60.9705 23.3533C60.1906 23.0016 59.5748 22.4797 59.123 21.7892C58.6712 21.0987 58.4453 20.2467 58.4453 19.2346C58.4453 18.3625 58.6065 17.6417 58.9273 17.0722C59.2482 16.5028 59.687 16.0458 60.2424 15.7041C60.7978 15.3625 61.4251 15.103 62.1244 14.9242C62.8237 14.7469 63.5488 14.6172 64.2985 14.5364C65.202 14.4427 65.9344 14.3577 66.497 14.2798C67.0596 14.2034 67.4696 14.0823 67.7272 13.918C67.9847 13.7536 68.1142 13.497 68.1142 13.1481V13.0876C68.1142 12.3293 67.8898 11.7426 67.4409 11.3274C66.9919 10.9122 66.3459 10.7032 65.5028 10.7032C64.6121 10.7032 63.9085 10.8978 63.3891 11.287C62.8697 11.6763 62.5201 12.1361 62.3402 12.6652L58.9475 12.1823C59.2151 11.2438 59.6568 10.4567 60.2726 9.82378C60.8884 9.18947 61.6409 8.71374 62.5316 8.39514C63.4222 8.07655 64.4049 7.91797 65.4826 7.91797C66.225 7.91797 66.9646 8.00447 67.7013 8.1789C68.438 8.35334 69.1099 8.64022 69.72 9.03955C70.3286 9.43887 70.8192 9.97948 71.1904 10.6642C71.5617 11.3476 71.7473 12.2039 71.7473 13.2289V23.5696H68.2538V21.4475H68.1329C67.9114 21.8771 67.602 22.2779 67.2049 22.6498C66.8063 23.0218 66.3085 23.3202 65.7085 23.5451C65.11 23.77 64.4078 23.8824 63.6049 23.8824L63.6064 23.881ZM64.5503 21.2053C65.2797 21.2053 65.9128 21.0597 66.4481 20.7671C66.9833 20.4759 67.3963 20.0881 67.6883 19.6051C67.979 19.1222 68.1257 18.596 68.1257 18.0266V16.2058C68.0121 16.2995 67.8193 16.3875 67.5488 16.4667C67.2783 16.5475 66.9747 16.6181 66.6409 16.6787C66.3056 16.7392 65.9747 16.7925 65.6466 16.8401C65.3186 16.8877 65.0337 16.9266 64.7934 16.9612C64.251 17.0347 63.7661 17.1558 63.3373 17.3231C62.9086 17.4903 62.5704 17.7238 62.323 18.0222C62.0755 18.3207 61.9517 18.7041 61.9517 19.1741C61.9517 19.8444 62.1963 20.3505 62.6841 20.6936C63.1719 21.0352 63.7949 21.2068 64.5517 21.2068L64.5503 21.2053Z" fill="white"/>
<path d="M87.6008 12.2015L84.2872 12.5634C84.1936 12.2275 84.031 11.9132 83.8008 11.6177C83.5706 11.3221 83.2598 11.0843 82.8728 10.9041C82.4843 10.7224 82.0095 10.633 81.4469 10.633C80.6901 10.633 80.057 10.7974 79.5448 11.1261C79.0326 11.4548 78.7793 11.88 78.7865 12.4033C78.7793 12.8531 78.9448 13.2179 79.2829 13.5004C79.621 13.7815 80.1807 14.0136 80.9649 14.1938L83.5951 14.7575C85.054 15.0732 86.1404 15.572 86.8526 16.2568C87.5648 16.9401 87.9245 17.8353 87.9317 18.9425C87.9245 19.9156 87.6425 20.7719 87.0828 21.5129C86.5245 22.2539 85.749 22.832 84.7591 23.2486C83.7677 23.6638 82.6311 23.8728 81.3462 23.8728C79.4584 23.8728 77.9391 23.4749 76.788 22.6806C75.6369 21.8863 74.9506 20.7777 74.7305 19.3563L78.2743 19.0146C78.4354 19.7123 78.7764 20.2385 79.2987 20.5932C79.821 20.9492 80.5002 21.1266 81.3361 21.1266C82.1721 21.1266 82.8944 20.9492 83.4195 20.5932C83.9447 20.2371 84.208 19.7988 84.208 19.2755C84.208 18.8329 84.0382 18.4682 83.7015 18.1785C83.3634 17.8901 82.8397 17.6696 82.1304 17.5153L79.5002 16.9617C78.0211 16.6532 76.9261 16.1314 76.2168 15.3976C75.5074 14.6638 75.1564 13.7325 75.1621 12.6066C75.1549 11.6551 75.4153 10.8277 75.9405 10.127C76.4657 9.42641 77.1995 8.88292 78.139 8.49801C79.0786 8.1131 80.1649 7.91992 81.3965 7.91992C83.2037 7.91992 84.6282 8.30627 85.6684 9.0761C86.7087 9.84736 87.3533 10.8896 87.6008 12.2044V12.2015Z" fill="white"/>
<path d="M98.6341 8.11808V10.935H89.7695V8.11808H98.6341ZM91.958 4.41602H95.5925V18.9215C95.5925 19.4117 95.6673 19.7851 95.8184 20.0431C95.9694 20.3012 96.168 20.477 96.4155 20.5707C96.6629 20.6645 96.9378 20.712 97.2385 20.712C97.4658 20.712 97.6759 20.6947 97.8658 20.6616C98.0572 20.6284 98.2025 20.5981 98.3032 20.5707L98.9162 23.4179C98.7219 23.4857 98.4457 23.5592 98.0874 23.6399C97.7291 23.7207 97.2932 23.7668 96.7766 23.7812C95.8658 23.8086 95.0457 23.6688 94.3162 23.3632C93.5867 23.0575 93.0098 22.5832 92.5839 21.9403C92.1594 21.2959 91.9494 20.4915 91.9565 19.5256V4.41602H91.958Z" fill="white"/>
<path d="M108.342 23.8709C106.795 23.8709 105.463 23.548 104.341 22.9007C103.22 22.2534 102.358 21.3351 101.755 20.1443C101.152 18.9535 100.852 17.5508 100.852 15.9348C100.852 14.3187 101.154 12.9492 101.759 11.7455C102.365 10.5417 103.214 9.60322 104.305 8.92854C105.395 8.25531 106.677 7.91797 108.149 7.91797C109.1 7.91797 109.998 8.07078 110.846 8.37496C111.692 8.68058 112.441 9.15055 113.095 9.78774C113.748 10.4249 114.261 11.2351 114.636 12.2169C115.01 13.2 115.198 14.3678 115.198 15.7229V16.8401H102.558V14.3851H111.715C111.708 13.6873 111.558 13.066 111.263 12.5196C110.968 11.9732 110.558 11.5422 110.033 11.2265C109.508 10.9108 108.896 10.7536 108.201 10.7536C107.459 10.7536 106.805 10.9338 106.243 11.2913C105.68 11.6503 105.244 12.1203 104.932 12.6998C104.621 13.2793 104.462 13.9151 104.456 14.6056V16.7479C104.456 17.646 104.62 18.4158 104.948 19.0559C105.276 19.696 105.735 20.1861 106.323 20.5249C106.912 20.8637 107.601 21.0323 108.391 21.0323C108.919 21.0323 109.398 20.9574 109.827 20.806C110.256 20.6546 110.627 20.4326 110.942 20.1371C111.257 19.8416 111.495 19.4768 111.654 19.04L115.047 19.4221C114.833 20.3202 114.427 21.103 113.827 21.7704C113.228 22.4379 112.463 22.954 111.533 23.3202C110.602 23.6849 109.539 23.868 108.341 23.868L108.342 23.8709Z" fill="white"/>
<path d="M118.273 23.5697V8.11849H121.797V10.6932H121.958C122.239 9.80086 122.722 9.11177 123.409 8.62594C124.095 8.14012 124.879 7.89648 125.763 7.89648C125.964 7.89648 126.19 7.90513 126.44 7.92099C126.691 7.93829 126.901 7.9628 127.068 7.99596V11.3463C126.914 11.2929 126.67 11.2439 126.339 11.2007C126.009 11.1574 125.689 11.1358 125.381 11.1358C124.719 11.1358 124.125 11.2785 123.6 11.564C123.075 11.8494 122.662 12.243 122.36 12.7461C122.058 13.2492 121.908 13.8287 121.908 14.4861V23.5697H118.273Z" fill="white"/>
<path d="M136.615 23.5694H129.648V2.96875H136.756C138.798 2.96875 140.553 3.37961 142.022 4.20133C143.491 5.02305 144.621 6.20085 145.411 7.73761C146.201 9.27293 146.595 11.111 146.595 13.2503C146.595 15.3897 146.198 17.2407 145.405 18.7833C144.612 20.3258 143.471 21.5094 141.982 22.334C140.493 23.1586 138.704 23.5709 136.615 23.5709V23.5694ZM133.372 20.3402H136.434C137.866 20.3402 139.061 20.0764 140.018 19.5502C140.975 19.024 141.694 18.2354 142.176 17.186C142.658 16.1365 142.899 14.8231 142.899 13.2475C142.899 11.6718 142.658 10.3628 142.176 9.31906C141.694 8.27677 140.984 7.49542 140.043 6.975C139.102 6.45602 137.936 6.19508 136.543 6.19508H133.371V20.3388L133.372 20.3402Z" fill="#9747FF"/>
<path d="M150.129 23.5694V2.96875H163.501V6.09705H153.854V11.6905H162.809V14.8188H153.854V20.4411H163.582V23.5694H150.129Z" fill="#9747FF"/>
<path d="M170.416 2.96875L174.944 10.5127H175.105L179.653 2.96875H183.9L177.565 13.2691L184.001 23.5694H179.684L175.106 16.0759H174.945L170.367 23.5694H166.07L172.565 13.2691L166.149 2.96875H170.416Z" fill="#9747FF"/>
</g>
<defs>
<clipPath id="clip0_22598_37310">
<rect width="184" height="24" fill="white"/>
</clipPath>
</defs>
</svg>