<svg width="223" height="189" viewBox="0 0 223 189" fill="none" xmlns="http://www.w3.org/2000/svg">
<path d="M87.0561 78.6679C87.4533 79.7934 87.8583 80.9266 88.3023 82.0364C88.5749 82.7398 88.8475 83.4198 89.1357 84.0919C89.3149 84.5062 89.5018 84.9126 89.6965 85.3424C89.938 85.8739 90.1795 86.421 90.4443 86.9603C91.4646 89.1096 92.5863 91.1963 93.8169 93.2049C94.3933 94.1819 95.0009 95.1432 95.624 96.0889C95.9745 96.6203 96.325 97.1518 96.6989 97.6755C96.9871 98.0897 97.2908 98.5117 97.5946 98.9259C97.7737 99.1995 97.9918 99.473 98.1866 99.7309C98.4436 100.083 98.7162 100.434 98.9888 100.786C99.3238 101.232 99.6743 101.669 100.025 102.099C100.04 102.099 100.056 102.083 100.071 102.068C103.67 99.2933 106.98 96.0811 109.932 92.5093C110.01 92.4156 110.073 92.3452 110.127 92.2514C110.096 92.2358 109.263 91.1416 108.881 90.5867C108.702 90.3601 108.53 90.1334 108.382 89.8989C108.079 89.4847 107.79 89.0783 107.533 88.6484C107.292 88.2967 107.066 87.9607 106.848 87.609C106.622 87.2885 106.42 86.9524 106.225 86.6164C105.859 86.038 105.508 85.4597 105.173 84.8657C105.111 84.7875 105.064 84.7016 105.033 84.6234C104.651 83.9669 104.285 83.2947 103.958 82.6148C103.849 82.4741 103.779 82.3256 103.717 82.1693C103.444 81.6535 103.203 81.1455 102.961 80.614C102.065 78.7539 101.279 76.8469 100.578 74.8852C99.0122 70.5084 97.9373 65.9207 97.3921 61.1688C97.1195 58.8085 96.9793 56.4169 96.9793 53.9941C96.9793 53.0953 96.9948 52.1965 97.0416 51.2977C97.0727 50.4927 97.1195 49.6799 97.1896 48.8748C97.2051 48.6951 97.2207 48.5231 97.2363 48.3434C97.283 47.8276 97.3298 47.3195 97.3999 46.8037C97.431 46.4364 97.4778 46.069 97.5245 45.7095C97.6647 44.6857 97.8283 43.6697 98.023 42.6614C98.1165 42.1144 98.2177 41.5829 98.3423 41.0436C98.3579 40.8795 98.4047 40.6919 98.4514 40.5278C98.576 39.9338 98.7084 39.3554 98.8642 38.7771C98.9265 38.5192 98.9888 38.2769 99.0434 38.0424C99.1913 37.4641 99.3471 36.9013 99.5263 36.3543C99.9936 34.7208 100.531 33.142 101.139 31.5711C101.349 31.024 101.583 30.4769 101.808 29.9377C101.824 29.8908 101.84 29.8282 101.871 29.7892C102.081 29.2577 102.323 28.734 102.556 28.2182C103.21 26.7723 103.935 25.3343 104.714 23.9509C104.854 23.693 105.002 23.4351 105.158 23.1772C105.236 23.013 105.321 22.8567 105.415 22.7082C105.446 22.6613 105.477 22.6144 105.508 22.5675C105.539 22.5206 105.571 22.4738 105.602 22.4269C108.195 18.3706 114.138 18.4018 116.685 22.5206C116.717 22.5363 116.717 22.5519 116.732 22.5832C116.748 22.5988 116.763 22.6301 116.779 22.6457C116.779 22.6613 116.794 22.6926 116.81 22.7082C116.826 22.7395 116.841 22.7707 116.857 22.802C116.966 22.9661 117.052 23.1381 117.145 23.3022C117.254 23.4507 117.34 23.6383 117.433 23.8024C117.721 24.3495 118.01 24.881 118.298 25.4202C118.617 26.0299 118.921 26.6395 119.209 27.2647C119.349 27.5383 119.482 27.8118 119.606 28.101C119.637 28.1479 119.653 28.2104 119.684 28.2495C119.926 28.7809 120.152 29.3124 120.385 29.8673C120.564 30.2815 120.736 30.6879 120.884 31.1178C121.047 31.5008 121.203 31.8759 121.335 32.2745C121.546 32.806 121.748 33.3531 121.927 33.9236C122.107 34.4707 122.294 35.0178 122.457 35.5727C122.636 36.1823 122.823 36.7919 122.987 37.4015C123.135 37.9486 123.291 38.5114 123.431 39.0663C123.446 39.1288 123.462 39.1913 123.477 39.246C123.571 39.629 123.657 40.0041 123.735 40.3871C123.828 40.7701 123.898 41.1374 123.976 41.5126C124.116 42.2003 124.249 42.8725 124.358 43.5524C124.482 44.2715 124.583 44.9827 124.693 45.7173C124.77 46.2801 124.833 46.8584 124.887 47.4211C124.95 47.9839 125.012 48.5622 125.035 49.1249C125.066 49.3516 125.082 49.5939 125.098 49.8284C125.129 50.3285 125.16 50.8522 125.175 51.368C125.191 51.6885 125.207 52.0245 125.207 52.345C125.222 52.6185 125.222 52.8921 125.222 53.1656C125.238 53.4548 125.238 53.7283 125.238 54.0019C125.238 54.6271 125.222 55.2367 125.207 55.862C125.191 56.2293 125.191 56.6123 125.16 56.9874C125.144 57.386 125.129 57.7612 125.098 58.1441C125.051 58.7538 125.004 59.3478 124.957 59.9261C125.004 59.9417 125.035 59.9417 125.082 59.9574C129.701 60.8249 134.226 62.1536 138.588 63.873C138.682 63.2008 138.752 62.5287 138.83 61.8487V61.8175C138.876 61.5283 138.907 61.2235 138.923 60.9187C138.985 60.3247 139.032 59.7307 139.063 59.1211C139.188 57.4329 139.242 55.7213 139.242 54.0019C139.242 35.2132 132.466 18.0032 121.226 4.71671C121.195 4.66982 121.164 4.63856 121.133 4.6073C121.11 4.58385 121.11 4.57603 121.117 4.57603C121.133 4.57603 120.977 4.42754 120.923 4.34938L120.782 4.2087C115.603 -1.4029 106.63 -1.4029 101.45 4.2087L101.31 4.34938C101.31 4.34938 101.17 4.49788 101.115 4.57603C101.076 4.62293 101.068 4.63856 101.1 4.6073C101.146 4.5604 101.037 4.66982 101.006 4.71671L99.8223 6.13134C99.5341 6.5143 99.2459 6.88164 98.9577 7.24115C98.6227 7.68664 98.2878 8.10868 97.9685 8.55417C95.6629 11.6491 93.591 14.9395 91.784 18.3706C91.5581 18.8161 91.3322 19.2694 91.0986 19.7148C90.8415 20.1994 90.6156 20.7074 90.3664 21.192C89.8835 22.2002 89.4395 23.2006 89.0111 24.2088C88.8008 24.7246 88.5827 25.2327 88.3724 25.7485C88.1777 26.2643 87.9752 26.788 87.7804 27.3038C87.5857 27.8196 87.3988 28.3433 87.2196 28.8747C87.0405 29.3906 86.8536 29.9298 86.69 30.4457C86.5264 30.9615 86.3551 31.4851 86.2071 32.001C86.1915 32.0322 86.1915 32.0479 86.1759 32.0791C86.0279 32.6106 85.8721 33.1342 85.7319 33.6657C85.584 34.1972 85.4282 34.7442 85.288 35.2991C85.1633 35.7681 85.0621 36.2448 84.9375 36.7294C84.7973 37.339 84.6648 37.9643 84.5402 38.5895C84.4156 39.1366 84.3143 39.6837 84.2209 40.2542C84.1118 40.817 84.0261 41.3641 83.9327 41.9268C83.738 43.1304 83.5666 44.3496 83.4342 45.5688C83.3251 46.624 83.2239 47.6869 83.1616 48.7654C83.0369 50.5005 82.9824 52.2434 82.9824 54.0097C82.9824 57.6987 83.2395 61.3407 83.7535 64.889C84.4234 69.6409 85.545 74.2443 87.0483 78.6835L87.0561 78.6679Z" fill="white"/>
<path d="M82.3829 65.375C82.3829 65.375 49.3731 76.4185 38.1881 112.964C38.1881 112.964 35.4775 123.578 46.8105 128.228C46.8105 128.228 80.1241 137.708 110.252 113.84C110.252 113.84 126.344 102.515 134.413 80.5685C134.413 80.5685 125.651 77.0359 121.048 76.5122C121.048 76.5122 116.514 87.4306 110.252 94.3552C110.252 94.3552 96.6679 111.8 73.1607 115.324C49.6535 118.857 56.095 106.274 56.095 106.274C56.095 106.274 65.8936 87.1258 85.7088 79.193C85.7088 79.193 82.6711 70.0018 82.3673 65.3672L82.3829 65.375Z" fill="white"/>
<path d="M112.005 114.018C112.005 114.018 138.246 136.949 175.306 128.055C175.306 128.055 185.798 125.007 184.029 112.853C184.029 112.853 175.251 79.2463 139.461 65.319C139.461 65.319 121.569 57.1595 98.623 61.3252C98.623 61.3252 100.041 70.6961 101.933 74.94C101.933 74.94 113.609 73.3143 122.73 75.2135C122.73 75.2135 144.602 78.0975 159.572 96.6204C174.542 115.143 160.468 115.964 160.468 115.964C160.468 115.964 139.056 117.215 122.177 104.116C122.177 104.116 115.829 111.408 112.005 114.026V114.018Z" fill="white"/>
<path d="M0.00212557 158.104H6.73963L15.7613 180.175H16.1164L25.1381 158.104H31.8756V188.562H26.5927V167.636H26.3099L17.9114 188.472H13.9642L5.56568 167.591H5.28282V188.56H0V158.104H0.00212557Z" fill="white"/>
<path d="M44.2302 188.979C42.7861 188.979 41.4867 188.719 40.334 188.198C39.1813 187.678 38.2711 186.907 37.6033 185.886C36.9355 184.865 36.6016 183.605 36.6016 182.109C36.6016 180.82 36.8398 179.754 37.314 178.912C37.7883 178.07 38.4369 177.395 39.2579 176.889C40.0788 176.384 41.006 176.001 42.0396 175.736C43.0732 175.474 44.1451 175.282 45.2531 175.163C46.5887 175.025 47.6712 174.899 48.5028 174.784C49.3344 174.671 49.9405 174.492 50.3212 174.249C50.7018 174.006 50.8933 173.626 50.8933 173.111V173.021C50.8933 171.9 50.5615 171.032 49.8979 170.419C49.2344 169.805 48.2795 169.496 47.0332 169.496C45.7168 169.496 44.6768 169.783 43.909 170.359C43.1413 170.934 42.6245 171.614 42.3586 172.397L37.3438 171.683C37.7394 170.295 38.3923 169.131 39.3025 168.196C40.2128 167.258 41.325 166.554 42.6415 166.083C43.958 165.612 45.4105 165.378 47.0034 165.378C48.1008 165.378 49.194 165.506 50.2829 165.764C51.3718 166.022 52.365 166.446 53.2667 167.036C54.1663 167.627 54.8915 168.426 55.4402 169.438C55.9889 170.448 56.2633 171.714 56.2633 173.23V188.518H51.0995V185.381H50.9209C50.5934 186.016 50.1361 186.608 49.5492 187.158C48.96 187.708 48.2242 188.149 47.3373 188.482C46.4526 188.814 45.4148 188.981 44.2281 188.981L44.2302 188.979ZM45.6253 185.023C46.7036 185.023 47.6393 184.807 48.4305 184.375C49.2216 183.944 49.832 183.371 50.2637 182.657C50.6933 181.943 50.9103 181.165 50.9103 180.323V177.631C50.7423 177.77 50.4573 177.9 50.0574 178.017C49.6576 178.136 49.2089 178.241 48.7155 178.33C48.2199 178.42 47.7308 178.499 47.2459 178.569C46.761 178.639 46.3399 178.697 45.9847 178.748C45.183 178.857 44.4662 179.036 43.8325 179.283C43.1987 179.53 42.6989 179.876 42.3331 180.317C41.9673 180.758 41.7844 181.325 41.7844 182.02C41.7844 183.011 42.146 183.759 42.8669 184.266C43.5879 184.771 44.5088 185.025 45.6274 185.025L45.6253 185.023Z" fill="white"/>
<path d="M79.6331 171.724L74.7352 172.259C74.5969 171.762 74.3566 171.297 74.0163 170.861C73.6761 170.424 73.2167 170.072 72.6446 169.805C72.0704 169.537 71.3685 169.405 70.537 169.405C69.4183 169.405 68.4826 169.648 67.7254 170.134C66.9683 170.62 66.594 171.248 66.6047 172.022C66.594 172.687 66.8386 173.226 67.3384 173.644C67.8382 174.06 68.6655 174.403 69.8245 174.669L73.7122 175.503C75.8687 175.969 77.4744 176.707 78.5272 177.719C79.5799 178.73 80.1116 180.053 80.1222 181.69C80.1116 183.129 79.6947 184.395 78.8674 185.49C78.0423 186.586 76.8959 187.44 75.4328 188.056C73.9674 188.67 72.2873 188.979 70.3881 188.979C67.5978 188.979 65.352 188.391 63.6506 187.217C61.9492 186.042 60.9348 184.403 60.6094 182.302L65.8475 181.797C66.0857 182.828 66.5898 183.606 67.3618 184.13C68.1338 184.657 69.1376 184.919 70.3732 184.919C71.6089 184.919 72.6765 184.657 73.4528 184.13C74.229 183.604 74.6182 182.956 74.6182 182.182C74.6182 181.528 74.3672 180.989 73.8696 180.56C73.3698 180.134 72.5957 179.808 71.5472 179.58L67.6595 178.762C65.4732 178.305 63.8548 177.534 62.8063 176.449C61.7578 175.364 61.2389 173.987 61.2474 172.323C61.2368 170.916 61.6217 169.693 62.398 168.657C63.1742 167.621 64.2589 166.817 65.6476 166.248C67.0364 165.679 68.6421 165.394 70.4625 165.394C73.1337 165.394 75.2392 165.965 76.7768 167.103C78.3145 168.243 79.2673 169.784 79.6331 171.728V171.724Z" fill="white"/>
<path d="M95.97 165.75V169.914H82.8672V165.75H95.97ZM86.102 160.276H91.4741V181.722C91.4741 182.447 91.5847 182.999 91.808 183.38C92.0313 183.762 92.3248 184.022 92.6906 184.16C93.0564 184.299 93.4626 184.369 93.9071 184.369C94.2431 184.369 94.5536 184.344 94.8344 184.295C95.1172 184.246 95.332 184.201 95.4809 184.16L96.3869 188.37C96.0998 188.47 95.6914 188.579 95.1619 188.698C94.6323 188.818 93.9879 188.886 93.2244 188.907C91.8782 188.948 90.6659 188.741 89.5877 188.289C88.5094 187.837 87.6566 187.136 87.0271 186.185C86.3997 185.233 86.0892 184.043 86.0998 182.615V160.276H86.102Z" fill="white"/>
<path d="M110.306 188.964C108.02 188.964 106.051 188.486 104.392 187.529C102.735 186.572 101.461 185.215 100.57 183.454C99.6789 181.694 99.2344 179.62 99.2344 177.23C99.2344 174.841 99.681 172.816 100.576 171.037C101.472 169.257 102.726 167.87 104.339 166.872C105.951 165.877 107.846 165.378 110.021 165.378C111.427 165.378 112.754 165.604 114.007 166.054C115.257 166.505 116.365 167.2 117.331 168.142C118.296 169.084 119.056 170.282 119.609 171.734C120.161 173.187 120.44 174.914 120.44 176.917V178.569H101.757V174.939H115.291C115.281 173.908 115.059 172.989 114.623 172.181C114.187 171.373 113.581 170.736 112.805 170.269C112.029 169.803 111.125 169.57 110.098 169.57C109 169.57 108.035 169.837 107.203 170.365C106.372 170.896 105.727 171.591 105.266 172.448C104.806 173.304 104.57 174.244 104.562 175.265V178.433C104.562 179.76 104.804 180.899 105.289 181.845C105.774 182.791 106.453 183.516 107.322 184.017C108.192 184.518 109.211 184.767 110.378 184.767C111.159 184.767 111.867 184.656 112.501 184.432C113.135 184.209 113.683 183.88 114.149 183.443C114.615 183.006 114.966 182.467 115.202 181.821L120.217 182.386C119.9 183.714 119.3 184.871 118.413 185.858C117.529 186.845 116.397 187.608 115.023 188.149C113.647 188.689 112.076 188.959 110.304 188.959L110.306 188.964Z" fill="white"/>
<path d="M125 188.542V165.698H130.208V169.505H130.447C130.861 168.186 131.576 167.167 132.59 166.449C133.605 165.73 134.764 165.37 136.07 165.37C136.367 165.37 136.701 165.383 137.071 165.406C137.441 165.432 137.752 165.468 137.999 165.517V170.47C137.771 170.392 137.412 170.319 136.922 170.255C136.433 170.191 135.961 170.159 135.506 170.159C134.528 170.159 133.649 170.37 132.873 170.792C132.097 171.214 131.487 171.796 131.04 172.54C130.593 173.284 130.372 174.141 130.372 175.113V188.542H125Z" fill="white"/>
<path d="M152.11 188.562H141.812V158.104H152.319C155.336 158.104 157.931 158.712 160.102 159.927C162.274 161.142 163.943 162.883 165.111 165.155C166.279 167.425 166.861 170.142 166.861 173.305C166.861 176.468 166.274 179.205 165.102 181.486C163.931 183.766 162.244 185.516 160.043 186.735C157.842 187.954 155.198 188.564 152.11 188.564V188.562ZM147.317 183.787H151.842C153.958 183.787 155.726 183.397 157.14 182.62C158.554 181.842 159.618 180.676 160.33 179.124C161.042 177.572 161.398 175.631 161.398 173.301C161.398 170.972 161.042 169.036 160.33 167.493C159.618 165.952 158.567 164.797 157.176 164.028C155.785 163.26 154.063 162.874 152.004 162.874H147.314V183.785L147.317 183.787Z" fill="#9747FF"/>
<path d="M172.07 188.562V158.104H191.836V162.73H177.576V170.999H190.813V175.624H177.576V183.937H191.955V188.562H172.07Z" fill="#9747FF"/>
<path d="M202.056 158.104L208.748 169.258H208.987L215.709 158.104H221.987L212.623 173.333L222.136 188.562H215.756L208.989 177.483H208.751L201.983 188.562H195.633L205.233 173.333L195.75 158.104H202.056Z" fill="#9747FF"/>
</svg>
